HIERARCHY
ROOT hip
{
  OFFSET 0.0 0.0 0.0
  CHANNELS 6 Xposition Yposition Zposition Zrotation Yrotation Xrotation
  JOINT torso
  {
    OFFSET 0.0 0.0 0.0
    CHANNELS 3 Zrotation Xrotation Yrotation
    JOINT neck
    {
      OFFSET -20.11218299999996 327.95800799999995 66.30578600000035
      CHANNELS 3 Zrotation Xrotation Yrotation
      JOINT head
      {
        OFFSET 18.28939800000012 288.83178699999996 217.81652800000006
        CHANNELS 3 Zrotation Xrotation Yrotation
        End Site
        {
          OFFSET 0.0 0.0 0.0
        }
      }
    }
    JOINT left_collar
    {
      OFFSET -20.11218299999996 327.95800799999995 66.30578600000035
      CHANNELS 3 Zrotation Xrotation Yrotation
      JOINT left_upper_arm
      {
        OFFSET -127.08163400000001 -16.17407199999991 15.44799799999987
        CHANNELS 3 Zrotation Xrotation Yrotation
        JOINT left_forearm
        {
          OFFSET -234.267792 45.78796399999999 109.31286600000021
          CHANNELS 3 Zrotation Xrotation Yrotation
          JOINT left_hand
          {
            OFFSET -259.114014 -33.25433399999997 16.18847699999992
            CHANNELS 3 Zrotation Xrotation Yrotation
            End Site
            {
              OFFSET 0.0 0.0 0.0
            }
          }
        }
      }
    }
    JOINT right_collar
    {
      OFFSET -20.11218299999996 327.95800799999995 66.30578600000035
      CHANNELS 3 Zrotation Xrotation Yrotation
      JOINT right_upper_arm
      {
        OFFSET 164.513184 1.5733030000000099 4.892333999999892
        CHANNELS 3 Zrotation Xrotation Yrotation
        JOINT right_forearm
        {
          OFFSET 260.742027 48.718444999999974 144.35229500000014
          CHANNELS 3 Zrotation Xrotation Yrotation
          JOINT right_hand
          {
            OFFSET 287.85150899999996 -44.57171600000015 13.96813899999961
            CHANNELS 3 Zrotation Xrotation Yrotation
            End Site
            {
              OFFSET 0.0 0.0 0.0
            }
          }
        }
      }
    }
  }
}
MOTION
Frames: 19
Frame Time: 0.01
-215.38902627222748 222.7101412547761 1458.8239031211579 2.6403758014051304 -14.167493653242913 -6.39626372109108 0.34400128945823866 1.532869957637079 0.029146133476621535 -0.14118807243250817 -8.30555986412863 0.6102025591521021 0.0 0.0 0.0 3.2761345845557703 0.9818132236191851 -3.6944791418372733 59.02402220359702 29.08609306951 -5.587775279723407 -5.2833970338032 0.5705438208995981 -10.925937535126941 0.0 0.0 0.0 -2.6613297383642966 0.09408896172037562 1.0922023227869877 -71.73013373044436 44.60727080024582 9.79167251860946 -7.450569333297455 0.454904317493069 0.4009486863982301 0.0 0.0 0.0
-214.99265418809577 222.4574265731262 1460.0581153397147 2.6869191783558524 -14.254103934633912 -6.4502651291103295 0.3469172547671534 1.5173666851840826 0.027592536849262717 -0.17807180727139432 -8.260227672899715 0.6365042909412452 0.0 0.0 0.0 3.2906759568038466 0.9801290139018394 -3.669505112819973 58.7851890610385 29.096843775071108 -5.911850882478691 -5.327894331539868 0.5632240460277949 -10.923032627396127 0.0 0.0 0.0 -2.7192783948606887 0.09657780093278427 1.107153325641209 -71.59100251852449 44.7152255724103 10.125471480697712 -7.331263467705616 0.4595648257340574 0.4507873872610787 0.0 0.0 0.0
-214.59986045567297 222.20691021518957 1461.2950216333866 2.732946238597454 -14.340465480630543 -6.504232779390163 0.35001532037725214 1.502517786192787 0.026045992950923594 -0.21496977935498848 -8.214365500659541 0.6627747034057113 0.0 0.0 0.0 3.306194260773074 0.9784199383620227 -3.6434539856121533 58.54438243439785 29.106617825947918 -6.238879537526643 -5.372657092899813 0.5557496041213635 -10.918730366664889 0.0 0.0 0.0 -2.777232914126948 0.09908875613845526 1.1225600452503501 -71.45112617457909 44.82182529856765 10.45853124785739 -7.210606265345256 0.464125824319697 0.5009871380231654 0.0 0.0 0.0
-214.21625285661196 221.9584413691369 1462.5349952268145 2.778422737287394 -14.426559061083239 -6.557865354647179 0.3531354132850784 1.488482332461459 0.024547127821316087 -0.251889800389008 -8.167345978071834 0.68898316331144 0.0 0.0 0.0 3.322754162972687 0.9766132524928821 -3.615810815086446 58.30236471748012 29.116064285498016 -6.569506999835796 -5.417813685018375 0.5480656275198754 -10.912589654826414 0.0 0.0 0.0 -2.8348217190863116 0.10160830208415085 1.1384570741309663 -71.31097384385879 44.92653765590503 10.789446700844637 -7.088476704336249 0.46874608007473834 0.5523158968488067 0.0 0.0 0.0
-213.84759120549248 221.71154195599564 1463.7790336226424 2.8233522757438076 -14.512451066912826 -6.610886968695028 0.3561172054650189 1.475413767822084 0.023136346004078764 -0.2888755429208428 -8.118441439311187 0.7151208868621826 0.0 0.0 0.0 3.3403989846336626 0.9746267777661626 -3.586024806762313 58.05987167632645 29.125872653165843 -6.904498891448826 -5.463511422792944 0.5401178988329934 -10.904204578877732 0.0 0.0 0.0 -2.8916883876514867 0.10412368211012718 1.1548986669813521 -71.1709267822884 45.02887156131875 11.116971632864523 -6.964724391017824 0.473594714620991 0.6056134721172985 0.0 0.0 0.0
-213.49969259007054 221.4654058031801 1465.0286612315358 2.8677756041490525 -14.59829100406964 -6.663049504249061 0.35880519720330506 1.4634543980977188 0.021852495715417194 -0.32600430201183894 -8.066837773483284 0.7411998807337546 0.0 0.0 0.0 3.3591440067965843 0.9723704262380134 -3.5535257782308314 57.81761563102952 29.136753182917726 -7.2446914925799275 -5.509907774707422 0.5318558878329206 -10.893224854520513 0.0 0.0 0.0 -2.947497649897635 0.1066231582211315 1.171956839523951 -71.03125967340641 45.12837978478652 11.4400465305219 -6.839186948205547 0.47884715121165206 0.6617711276159493 0.0 0.0 0.0
-213.1783346071499 221.2189057110537 1466.2858274137704 2.91176981668627 -14.684306110315243 -6.714133113990381 0.3610530741560976 1.4527284841261177 0.02073157428347165 -0.3633833721311752 -8.011651444560796 0.7672509864324083 0.0 0.0 0.0 3.3789701245242294 0.9697481093330549 -3.517742515838929 57.57628793032622 29.149417349146184 -7.590942269117222 -5.557161440708248 0.5232357135672755 -10.879375657559574 0.0 0.0 0.0 -3.0019409622831197 0.10909621118435903 1.1897177545183826 -70.89212180029692 45.224660949006214 11.757825970762038 -6.711707681994104 0.48468110545989684 0.7217106304398412 0.0 0.0 0.0
-212.88915866467883 220.97060831276286 1467.5528060549934 2.955447500607021 -14.770793229177224 -6.763944841280667 0.36272718442288315 1.443333977221429 0.01980550795348586 -0.40114512308327466 -7.951949276869942 0.7933210708674878 0.0 0.0 0.0 3.3998182965996806 0.9666600216355604 -3.478122453674623 57.336559500121275 29.16455895317845 -7.9440829830486 -5.6054236743029024 0.5142229066869783 -10.862476115902155 0.0 0.0 0.0 -3.054741624352771 0.11153368340500722 1.208276417886555 -70.75351825746046 45.31736104365981 12.06970557738434 -6.582152554872504 0.49127273271901173 0.7863634437556501 0.0 0.0 0.0
-212.63757541608027 220.718796404964 1468.832102334335 2.99895582019199 -14.858108225149104 -6.812315414122809 0.3637090707582335 1.4353330821378307 0.01910103334918587 -0.4394408970031196 -7.886770482019595 0.8194694296713937 0.0 0.0 0.0 3.4215852824273814 0.963005277563855 -3.4341519802068885 57.09907828737375 29.18283625990878 -8.304878144883507 -5.654830180874092 0.5047948551892413 -10.842455754878337 0.0 0.0 0.0 -3.1056594292836093 0.11392786200437413 1.227729827784358 -70.61529145506373 45.4061745373748 12.375348332492777 -6.450425513455408 0.4987930352086312 0.8566507222375708 0.0 0.0 0.0
-212.4286743742011 220.46149824062934 1470.1263715083867 3.0424754494029336 -14.94665334251043 -6.859094339946969 0.36389705817699736 1.4287419657538993 0.01863870455098762 -0.4784338654344776 -7.815150305563043 0.8457634788158854 0.0 0.0 0.0 3.4441211335813198 0.9586848631543271 -3.385376620796528 56.86446261675357 29.204855450591246 -8.673991260863533 -5.705493861642341 0.49494283256093113 -10.819368239689945 0.0 0.0 0.0 -3.154494829805216 0.11627250298035689 1.2481688121276426 -70.47710330809808 45.49084511119311 12.674709789636093 -6.3164812941130615 0.5074046197766466 0.9334647046534696 0.0 0.0 0.0
-212.26713972349484 220.1965231454404 1471.438353299436 3.086219215881732 -15.036862968198632 -6.904143477457423 0.36320693794893744 1.4235200232404537 0.018432048238165428 -0.5182909886100227 -7.736144597415707 0.8722738101190163 0.0 0.0 0.0 3.4672288169797376 0.9536048468317099 -3.331420348932667 56.63328982486459 29.231155583020712 -9.051960803397355 -5.7574985965665855 0.4846735298029825 -10.793401846049393 0.0 0.0 0.0 -3.2010925604699754 0.11856279923757192 1.2696688510746343 -70.33841870439043 45.5711659641108 12.96806139727589 -6.18033496947725 0.5172588823472694 1.0176520173106365 0.0 0.0 0.0
-212.1571742965862 219.9215027597178 1472.770823846245 3.130430277767439 -15.129188255335002 -6.947329297232425 0.36157182009769784 1.419559165605948 0.018486886693245125 -0.5591742242500041 -7.648854558185113 0.8990686895474633 0.0 0.0 0.0 3.4906662229996788 0.9476797737690705 -3.2720033230608077 56.40607998497053 29.262195164167906 -9.439187134198006 -5.810894179519824 0.4740100404415287 -10.76488621532747 0.0 0.0 0.0 -3.2453446124700505 0.12079529648752249 1.2922802232513517 -70.19849105767062 45.6469795529477 13.256010768426592 -6.0420677081296725 0.528493676705514 1.1099992998897976 0.0 0.0 0.0
-212.102433570494 219.63393721058196 1474.1265652665086 3.1753796201820923 -15.224081024679792 -6.988514081027908 0.3589412644146589 1.416673623989665 0.01880084290687334 -0.6012311555663246 -7.552450891867856 0.9262080957382408 0.0 0.0 0.0 3.514150680850741 0.9408361492663729 -3.2069574071104823 56.183275021541526 29.29834036324531 -9.835930803836513 -5.865692442803509 0.4629922783267099 -10.734295108591898 0.0 0.0 0.0 -3.287192433720014 0.12296776257926266 1.3160178560205216 -70.05635091783896 45.71817653036082 13.539517398628886 -5.901828492561356 0.5412315030974799 1.2112214398645813 0.0 0.0 0.0
-212.10597132985257 219.331245546211 1475.5083509625558 3.2213626390463315 -15.321977323094327 -7.027546363709644 0.35527984637479687 1.4145907975309266 0.01936303459923942 -0.644585253829595 -7.446196615014105 0.9537374349576904 0.0 0.0 0.0 3.5373659670550737 0.9330158969294159 -3.1362389004004614 55.965213988775815 29.339854833690723 -10.24232181921091 -5.9218645440512505 0.45167683868245745 -10.702245050946278 0.0 0.0 0.0 -3.3266282315718345 0.12507901805084295 1.3408513122258001 -69.91079869248532 45.78469355490645 13.819902114268656 -5.759831848047913 0.5555782273016726 1.3219525600284137 0.0 0.0 0.0
-212.17019833200672 219.01081976530344 1476.9189432116752 3.268694593879769 -15.423281006333214 -7.064250997505134 0.35056535107698816 1.41294370504667 0.020153958334182598 -0.6893260530963354 -7.329467834097456 0.9816811221364649 0.0 0.0 0.0 3.55997164968183 0.92417965788143 -3.05993797372578 55.75210571148481 29.38689108382927 -10.658378699683885 -5.97933934977114 0.44013633881740544 -10.669489928852693 0.0 0.0 0.0 -3.363695278595284 0.12712873807486 1.3666954055449658 -69.76040251589755 45.846509595144205 14.098848492212415 -5.616351924806418 0.571622314076153 1.4427397552280001 0.0 0.0 0.0
-212.2968549254096 218.67008171985333 1478.3610985504024 3.317704770930534 -15.52834773424324 -7.0984193096217405 0.34478679023749814 1.4112656229775389 0.02114556506359596 -0.7354995757789076 -7.201771894125817 1.010036270677774 0.0 0.0 0.0 3.581614474876713 0.9143097819171779 -2.9782843871593676 55.54400032715967 29.439483345142996 -11.084035509182108 -6.038002847523294 0.4284582912166202 -10.636911735756877 0.0 0.0 0.0 -3.3984871490756556 0.1291172375468754 1.3934019851331407 -69.60350218495707 45.90364036121052 14.378394667451607 -5.471713493759074 0.5894345296274693 1.5740394232997537 0.0 0.0 0.0
-212.48699815352833 218.3065420599177 1479.8375760363454 3.368729301198443 -15.637469810025523 -7.129799913271029 0.3379423928045754 1.4089874891181955 0.022301535748143322 -0.7830993892658117 -7.062762409856924 1.0387667709916633 0.0 0.0 0.0 3.6019413876013577 0.9034128553092821 -2.8916491601475145 55.34076150312603 29.49754192975727 -11.519174595656866 -6.0976985507469355 0.41674356645968547 -10.605507729993942 0.0 0.0 0.0 -3.431145833574008 0.13104525088359273 1.4207534431850692 -69.43821988419907 45.95613058142039 14.660914325871692 -5.326280538169863 0.6090680357852649 1.7162158807874794 0.0 0.0 0.0
-212.74100342002282 217.91786024514423 1481.351143574185 3.422102710938209 -15.750862341315182 -7.1580907994506395 0.33003764049666506 1.4054386139706532 0.023577777365518998 -0.8320586888293365 -6.912250812588408 1.067798053385046 0.0 0.0 0.0 3.6206136836024343 0.8915216148614135 -2.8005419830964717 55.14204122331794 29.560849129299157 -11.96366249141126 -6.158228906073484 0.40510450000545145 -10.576374279100337 0.0 0.0 0.0 -3.4618586858702542 0.13291371576256855 1.4484584637947417 -69.26247818159231 46.004043991238255 14.949086202420023 -5.18044315929563 0.630558766320941 1.8695418007940523 0.0 0.0 0.0
-213.05858027699188 217.50190449315127 1482.9045780031408 3.478148426108185 -15.868651229131627 -7.182933371048648 0.32108333310101056 1.399851166924655 0.024923170268741714 -0.8822437970642528 -6.750214181912621 1.0970128302488313 0.0 0.0 0.0 3.6373217086416987 0.8786961133141995 -2.705604300231794 54.94725903854825 29.629056763030203 -12.4173863091917 -6.219357743607085 0.3936626925194632 -10.550687653889348 0.0 0.0 0.0 -3.490854157185633 0.13472356611279587 1.4761504530636902 -69.07402553359033 46.04745110061281 15.245851986369443 -5.034603486790285 0.6539259480194061 2.0341998729450608 0.0 0.0 0.0
